<?xml version="1.0" encoding="UTF-8"?>
<svg width="512pt" height="512pt" version="1.0" viewBox="0 0 512 512" xmlns="http://www.w3.org/2000/svg">
 <g transform="translate(0 512) scale(.1 -.1)" fill="#a8a8b2" stroke-width="1.08">
  <path d="m492.96 4627.7c-182.67-41.248-339.71-164.99-423.03-332.16-29.911-60.787-70.505-191.04-61.959-197.56 2.1365-2.1709 577.93-381 1278.7-841.24l1273.4-836.9 1274.4 836.9c699.71 460.24 1275.5 837.99 1277.6 840.16 8.5461 7.5983-32.048 137.86-61.959 198.64-71.574 142.2-198.7 256.17-353.59 313.7l-80.12 29.308-2029.7 2.171c-1665.4 1.0855-2041.4-1.0855-2093.8-13.026z"/>
  <path d="m-3.783 2374.3c0-1446.9-1.0683-1400.3 65.164-1538.1 72.642-149.8 221.13-281.14 376.03-329.98l76.915-24.966h4091.4l80.12 27.137c158.1 52.103 303.39 181.27 374.96 334.33 65.164 137.86 63.027 92.266 60.891 1531.6l-3.2048 1313.4-2499.7-1643.4h-117.51l-1228.5 807.59c-675.14 443.96-1239.2 815.19-1252 823.88l-24.57 15.197z"/>
 </g>
</svg>
